<svg width="132" height="132" viewBox="0 0 132 132" fill="none" xmlns="http://www.w3.org/2000/svg">
<rect width="132" height="132" rx="35.712" fill="#2D3047"/>
<path d="M68.71 67.404C68.764 66.954 68.8 66.486 68.8 66C68.8 65.514 68.764 65.046 68.692 64.596L71.734 62.22C72.004 62.004 72.076 61.608 71.914 61.302L69.034 56.316C68.854 55.992 68.476 55.884 68.152 55.992L64.57 57.432C63.814 56.856 63.022 56.388 62.14 56.028L61.6 52.212C61.546 51.852 61.24 51.6 60.88 51.6H55.12C54.76 51.6 54.472 51.852 54.418 52.212L53.878 56.028C52.996 56.388 52.186 56.874 51.448 57.432L47.866 55.992C47.542 55.866 47.164 55.992 46.984 56.316L44.104 61.302C43.924 61.626 43.996 62.004 44.284 62.22L47.326 64.596C47.254 65.046 47.2 65.532 47.2 66C47.2 66.468 47.236 66.954 47.308 67.404L44.266 69.78C43.996 69.996 43.924 70.392 44.086 70.698L46.966 75.684C47.146 76.008 47.524 76.116 47.848 76.008L51.43 74.568C52.186 75.144 52.978 75.612 53.86 75.972L54.4 79.788C54.472 80.148 54.76 80.4 55.12 80.4H60.88C61.24 80.4 61.546 80.148 61.582 79.788L62.122 75.972C63.004 75.612 63.814 75.126 64.552 74.568L68.134 76.008C68.458 76.134 68.836 76.008 69.016 75.684L71.896 70.698C72.076 70.374 72.004 69.996 71.716 69.78L68.71 67.404ZM58 71.4C55.03 71.4 52.6 68.97 52.6 66C52.6 63.03 55.03 60.6 58 60.6C60.97 60.6 63.4 63.03 63.4 66C63.4 68.97 60.97 71.4 58 71.4Z" fill="white"/>
<path d="M15.84 79L8.4 51.56H13.92L18.36 69.2C18.44 69.4667 18.52 69.84 18.6 70.32C18.68 70.7733 18.76 71.2533 18.84 71.76C18.92 72.2667 18.9867 72.72 19.04 73.12H19.24C19.2933 72.8 19.3333 72.4533 19.36 72.08C19.4133 71.7067 19.4667 71.3333 19.52 70.96C19.6 70.5867 19.6667 70.2533 19.72 69.96C19.7733 69.64 19.8133 69.3867 19.84 69.2L23.96 51.56H30.64L34.76 69.2C34.84 69.4667 34.92 69.84 35 70.32C35.08 70.7733 35.16 71.2533 35.24 71.76C35.32 72.2667 35.3867 72.72 35.44 73.12H35.64C35.6933 72.8267 35.7467 72.5067 35.8 72.16C35.88 71.7867 35.9467 71.4267 36 71.08C36.08 70.7067 36.16 70.36 36.24 70.04C36.32 69.72 36.3867 69.44 36.44 69.2L40.88 51.56H45.76L38.28 79H32.32L27.88 61C27.8 60.6267 27.7067 60.2 27.6 59.72C27.52 59.2133 27.44 58.72 27.36 58.24C27.3067 57.7333 27.2533 57.2933 27.2 56.92H27.04C27.0133 57.32 26.96 57.7867 26.88 58.32C26.8267 58.8267 26.76 59.32 26.68 59.8C26.6 60.28 26.52 60.68 26.44 61L22.04 79H15.84ZM73.2275 79V51.56H78.4275V64.28L90.5875 51.56H96.9475L86.3075 62.68L97.1475 79H90.9875L82.7875 66.32L78.4275 70.16V79H73.2275ZM96.2078 79L106.888 51.56H113.448L124.168 79H118.528L116.328 73.16H103.768L101.568 79H96.2078ZM105.408 68.76H114.648L111.888 61.32C111.781 61.0533 111.648 60.72 111.488 60.32C111.354 59.8933 111.208 59.44 111.048 58.96C110.888 58.4533 110.728 57.9467 110.568 57.44C110.408 56.9333 110.261 56.48 110.128 56.08H109.928C109.768 56.6133 109.568 57.2267 109.328 57.92C109.114 58.6133 108.901 59.2667 108.688 59.88C108.474 60.4933 108.301 60.9733 108.168 61.32L105.408 68.76Z" fill="white"/>
</svg>
