<svg width="132" height="132" viewBox="0 0 132 132" fill="none" xmlns="http://www.w3.org/2000/svg">
<rect width="132" height="132" rx="35.712" fill="white"/>
<path d="M68.7101 65.404C68.7641 64.954 68.8001 64.486 68.8001 64C68.8001 63.514 68.7641 63.046 68.6921 62.596L71.7341 60.22C72.0041 60.004 72.0761 59.608 71.9141 59.302L69.0341 54.316C68.8541 53.992 68.4761 53.884 68.1521 53.992L64.5701 55.432C63.8141 54.856 63.0221 54.388 62.1401 54.028L61.6001 50.212C61.5461 49.852 61.2401 49.6 60.8801 49.6H55.1201C54.7601 49.6 54.4721 49.852 54.4181 50.212L53.8781 54.028C52.9961 54.388 52.1861 54.874 51.4481 55.432L47.8661 53.992C47.5421 53.866 47.1641 53.992 46.9841 54.316L44.1041 59.302C43.9241 59.626 43.9961 60.004 44.2841 60.22L47.3261 62.596C47.2541 63.046 47.2001 63.532 47.2001 64C47.2001 64.468 47.2361 64.954 47.3081 65.404L44.2661 67.78C43.9961 67.996 43.9241 68.392 44.0861 68.698L46.9661 73.684C47.1461 74.008 47.5241 74.116 47.8481 74.008L51.4301 72.568C52.1861 73.144 52.9781 73.612 53.8601 73.972L54.4001 77.788C54.4721 78.148 54.7601 78.4 55.1201 78.4H60.8801C61.2401 78.4 61.5461 78.148 61.5821 77.788L62.1221 73.972C63.0041 73.612 63.8141 73.126 64.5521 72.568L68.1341 74.008C68.4581 74.134 68.8361 74.008 69.0161 73.684L71.8961 68.698C72.0761 68.374 72.0041 67.996 71.7161 67.78L68.7101 65.404V65.404ZM58.0001 69.4C55.0301 69.4 52.6001 66.97 52.6001 64C52.6001 61.03 55.0301 58.6 58.0001 58.6C60.9701 58.6 63.4001 61.03 63.4001 64C63.4001 66.97 60.9701 69.4 58.0001 69.4Z" fill="black"/>
<path d="M15.84 77L8.4 49.56H13.92L18.36 67.2C18.44 67.4667 18.52 67.84 18.6 68.32C18.68 68.7733 18.76 69.2533 18.84 69.76C18.92 70.2667 18.9867 70.72 19.04 71.12H19.24C19.2933 70.8 19.3333 70.4533 19.36 70.08C19.4133 69.7067 19.4667 69.3333 19.52 68.96C19.6 68.5867 19.6667 68.2533 19.72 67.96C19.7733 67.64 19.8133 67.3867 19.84 67.2L23.96 49.56H30.64L34.76 67.2C34.84 67.4667 34.92 67.84 35 68.32C35.08 68.7733 35.16 69.2533 35.24 69.76C35.32 70.2667 35.3867 70.72 35.44 71.12H35.64C35.6933 70.8267 35.7467 70.5067 35.8 70.16C35.88 69.7867 35.9467 69.4267 36 69.08C36.08 68.7067 36.16 68.36 36.24 68.04C36.32 67.72 36.3867 67.44 36.44 67.2L40.88 49.56H45.76L38.28 77H32.32L27.88 59C27.8 58.6267 27.7067 58.2 27.6 57.72C27.52 57.2133 27.44 56.72 27.36 56.24C27.3067 55.7333 27.2533 55.2933 27.2 54.92H27.04C27.0133 55.32 26.96 55.7867 26.88 56.32C26.8267 56.8267 26.76 57.32 26.68 57.8C26.6 58.28 26.52 58.68 26.44 59L22.04 77H15.84ZM73.2275 77V49.56H78.4275V62.28L90.5875 49.56H96.9475L86.3075 60.68L97.1475 77H90.9875L82.7875 64.32L78.4275 68.16V77H73.2275ZM96.2078 77L106.888 49.56H113.448L124.168 77H118.528L116.328 71.16H103.768L101.568 77H96.2078ZM105.408 66.76H114.648L111.888 59.32C111.781 59.0533 111.648 58.72 111.488 58.32C111.354 57.8933 111.208 57.44 111.048 56.96C110.888 56.4533 110.728 55.9467 110.568 55.44C110.408 54.9333 110.261 54.48 110.128 54.08H109.928C109.768 54.6133 109.568 55.2267 109.328 55.92C109.114 56.6133 108.901 57.2667 108.688 57.88C108.474 58.4933 108.301 58.9733 108.168 59.32L105.408 66.76Z" fill="black"/>
</svg>
